<?xml version="1.0" encoding="utf-8"?>
<svg version="1.1" xmlns="http://www.w3.org/2000/svg"
	xmlns:xlink="http://www.w3.org/1999/xlink" x="0px" y="0px"
	viewBox="0 0 500 500" style="enable-background:new 0 0 500 500;"
	xml:space="preserve">
	<style type="text/css">
		.st0 {
			fill: url(#SVGID_1_);
		}

		.st1 {
			fill: url(#SVGID_2_);
		}

		.st2 {
			fill: url(#SVGID_3_);
		}

		.st3 {
			fill: url(#SVGID_4_);
		}

		.st4 {
			fill: url(#SVGID_5_);
		}

		.st5 {
			fill: url(#SVGID_6_);
		}

		.st6 {
			fill: url(#SVGID_7_);
		}
	</style>
	<g id="Camada_1">
		<linearGradient id="SVGID_1_" gradientUnits="userSpaceOnUse" x1="250"
			y1="48.7255" x2="250" y2="275">
			<stop offset="0" style="stop-color:#F26522" />
			<stop offset="0.1187" style="stop-color:#ED6222" />
			<stop offset="0.5138" style="stop-color:#E35A22" />
			<stop offset="1" style="stop-color:#E05822" />
		</linearGradient>
		<path class="st0" d="M250,48.73l-56.07,95.52c1.42,0.69,3.81,0.34,5.67,0.36c10.68,0.06,21.36-0.06,32.03,0.09
		c5.92,0.09,9.71,3.31,10.57,9.15c0.78,5.28-1.75,9.2-6.69,11.08c-2.11,0.8-4.61,0.77-6.94,0.78c-15.49,0.04-31.74,0.05-47.28,0.06
		l-9.26,15.78c25.4,0.01,51.61,0.04,77,0.05c2.13,0,4.32-0.12,6.38,0.31c5.5,1.15,8.52,4.7,8.66,10.35
		c0.12,5.35-3.89,9.75-9.36,10.4c-2.11,0.25-4.26,0.14-6.4,0.14c-29.58,0.01-59.17,0.01-88.75,0.01l-9.18,15.64
		c16.77,0,34.73-0.05,51.48-0.03c8.19,0.01,13.18,4.16,13.1,10.72c-0.08,6.5-5.1,10.52-13.35,10.54
		c-14.67,0.04-48.91,0.04-63.75,0.08L117.19,275h265.63L250,48.73z" />
	</g>
	<g id="Camada_2">
		<g>
			<linearGradient id="SVGID_2_" gradientUnits="userSpaceOnUse"
				x1="235.8852" y1="318.0001" x2="235.8852" y2="410.7782">
				<stop offset="0" style="stop-color:#F26522" />
				<stop offset="0.1187" style="stop-color:#ED6222" />
				<stop offset="0.5138" style="stop-color:#E35A22" />
				<stop offset="1" style="stop-color:#E05822" />
			</linearGradient>
			<path class="st1" d="M236.71,318h-44.24v92.78h29.39v-14.86h28.06v14.86h29.39v-52.83L236.71,318z M221.85,369.01v-24.1h1.65
			l26.08,24.1H221.85z" />
			<linearGradient id="SVGID_3_" gradientUnits="userSpaceOnUse"
				x1="334.6064" y1="318.0001" x2="334.6064" y2="410.7782">
				<stop offset="0" style="stop-color:#F26522" />
				<stop offset="0.1187" style="stop-color:#ED6222" />
				<stop offset="0.5138" style="stop-color:#E35A22" />
				<stop offset="1" style="stop-color:#E05822" />
			</linearGradient>
			<path class="st2"
				d="M291.19,318v92.78h29.39v-14.86h57.45V318H291.19z M348.31,368.85h-27.73v-24.1h27.73V368.85z" />
			<linearGradient id="SVGID_4_" gradientUnits="userSpaceOnUse"
				x1="432.9973" y1="318" x2="432.9973" y2="410.7782">
				<stop offset="0" style="stop-color:#F26522" />
				<stop offset="0.1187" style="stop-color:#ED6222" />
				<stop offset="0.5138" style="stop-color:#E35A22" />
				<stop offset="1" style="stop-color:#E05822" />
			</linearGradient>
			<polygon class="st3" points="447.03,359.77 447.03,410.78 419.3,410.78 419.3,359.77 419.3,359.77 389.58,359.77 389.58,318
			476.41,318 476.41,359.77 447.03,359.77 		" />
			<linearGradient id="SVGID_5_" gradientUnits="userSpaceOnUse"
				x1="59.8215" y1="318.0001" x2="59.8215" y2="410.7782">
				<stop offset="0" style="stop-color:#F26522" />
				<stop offset="0.1187" style="stop-color:#ED6222" />
				<stop offset="0.5138" style="stop-color:#E35A22" />
				<stop offset="1" style="stop-color:#E05822" />
			</linearGradient>
			<path class="st4"
				d="M48.11,332.86V318H23.59v92.78h72.47v-77.92H48.11z M71.26,384.03H48.11v-24.1h23.15V384.03z" />
			<linearGradient id="SVGID_6_" gradientUnits="userSpaceOnUse"
				x1="144.0151" y1="332.6927" x2="144.0151" y2="410.7782">
				<stop offset="0" style="stop-color:#F26522" />
				<stop offset="0.1187" style="stop-color:#ED6222" />
				<stop offset="0.5138" style="stop-color:#E35A22" />
				<stop offset="1" style="stop-color:#E05822" />
			</linearGradient>
			<path class="st5" d="M180.25,384.03v-51.34h-72.47v78.09h72.47v-14.86h-47.4v-11.89H180.25z M132.85,353.33H156v11.89h-23.15
			V353.33z" />
		</g>
	</g>
</svg>