<?xml version="1.0" encoding="UTF-8"?>
<svg width="1371px" height="325px" viewBox="0 0 1371 325" version="1.1"
	xmlns="http://www.w3.org/2000/svg"
	xmlns:xlink="http://www.w3.org/1999/xlink">
	<!-- Generator: Sketch 58 (84663) - https://sketch.com -->
	<title>logo</title>
	<desc>Created with Sketch.</desc>
	<g id="logo" stroke="none" stroke-width="1" fill="none" fill-rule="evenodd">
		<g id="Combined-Shape">
			<path
				d="M729.594645,34.6978595 L769.07162,74.079138 L769.07162,284.697859 L729.594645,324.697859 L518.832488,324.697859 L479.07162,284.697859 L479.07162,74.0267286 L518.832488,34.6978595 L729.594645,34.6978595 Z M1070.07162,34.6978595 L1070.07162,284.392089 L1030.0389,324.697859 L779.07162,324.697859 L779.07162,245.028824 L789.07162,235.028824 L970.07162,235.028824 L980.287474,225.028824 L980.287474,34.6978595 L1070.07162,34.6978595 Z M1370.59465,34.6978595 L1370.07162,74.079138 L1370.07149,124.697859 L1169.07162,124.697859 L1179.07162,134.697859 L1329.90759,134.697859 L1370.07149,174.861859 L1370.07162,284.697859 L1330.59465,324.697859 L1079.83249,324.697859 L1080.07162,284.697859 L1080.07162,234.737543 L1271.18026,234.737543 L1281.21994,224.697859 L1120.52091,224.697859 L1080.07162,185.028824 L1080.07162,74.0267286 L1119.83249,34.6978595 L1370.59465,34.6978595 Z M259.061267,3.97903932e-13 L269.045,9.984 L269.045633,34 L269.061,34 L269.061267,234.767266 L279.061267,244.767266 L369.464796,244.767266 L379.464796,234.767266 L379.464796,115.542329 L369.791135,125.542329 L369.791135,230.368519 L365.860864,234.368519 L283.905141,234.368519 L279.772824,230.368519 L279.772824,74 L319.772824,34 L428.9993,34 L469,73.9039746 L469,284.096025 L428.9993,324 L219.0007,324 L179,284.096025 L179,-5.68434189e-14 L259.061267,3.97903932e-13 Z M669.516134,124.649032 L578.772824,124.649032 L569.07162,134.579938 L569.07162,224.871994 L579.07162,234.871994 L669.516134,234.871994 L679.378765,224.871994 L679.378765,134.511663 L669.516134,124.649032 Z M869.07162,34.6978595 L869.07162,225.028824 L819.520914,224.697859 L779.07162,224.697859 L779.07162,34.6978595 L869.07162,34.6978595 Z M970.07162,135.028824 L970.07162,221.032834 L966.285754,225.028824 L879.07162,224.697859 L879.07162,135.028824 L970.07162,135.028824 Z M665.464796,134.563002 L669.464796,138.511663 L669.464796,220.962035 L665.464796,224.871994 L582.772824,224.958024 L578.772824,220.962035 L578.772824,138.511663 L582.772824,134.563002 L665.464796,134.563002 Z"
				fill="#FFFFFF"></path>
			<path
				d="M41,19 L41,83 L0,83 L0,57.6814584 L12.8339935,57.6814584 L12.8339935,69.6161305 L27.508162,69.6161305 L27.508162,31.074276 L15.508162,31.074276 L15.508162,19 L41,19 Z M41.1970304,-3.99680289e-14 L41.1970304,11.6169262 L29,11.6169262 L29,-3.99680289e-14 L41.1970304,-3.99680289e-14 Z M13.5675429,261 L13.5675429,287.460497 L65.9720098,287.460497 L65.9720098,261 L79,261 L79,325 L1,325 L1,311.616131 L65.9720098,311.616131 L65.9720098,299.534773 L1,299.534773 L1,261 L13.5675429,261 Z M79,180 L79,244 L65.9862491,244 L65.9862491,192.074276 L46.3376855,192.074276 L46.3376855,244 L33.3748535,244 L33.2886148,192.074276 L13.3546034,192.074276 L13.3546034,244 L1,244 L1,180 L79,180 Z M79,100 L79,164 L65.9862491,164 L65.9862491,112.074276 L46.3376855,112.074276 L46.3376855,164 L33.3748535,164 L33.2886148,112.074276 L13.3546034,112.074276 L13.3546034,164 L1,164 L1,100 L79,100 Z M79.3784795,19 L79.3784795,83.7013327 L66.0842105,83.7013327 L66,31.074276 L54,31.074276 L54,19 L79.3784795,19 Z M79.1970304,0 L79.1970304,11.6169262 L67,11.6169262 L67,0 L79.1970304,0 Z"
				fill="#E2B562"></path>
		</g>
	</g>
</svg>