<svg xmlns="http://www.w3.org/2000/svg" viewBox="0 0 599.2 99.4">
	<path
		d="M65.7 26.8c-2.3-1.8-6.4 1-9 2.4-5.1 2.7-9.7 6.3-13.6 10.6-9.4 10.7-10 17.2-10 17.2l-2.9-1.4c1.1-7.1.7-14.3-1.4-21.1-2.2-7.7-5.7-15-10.3-21.5-3-4.5-6.6-8.5-10.7-12.1C6.8 0 5.4-.2 4.1.3 1.7 1.7 1.6 5.4 1.6 8.4c-.5 11.4 1.5 22.6 6 33 2.7 6.3 6.7 12 11.7 16.7 0 0-7.9 4.5-13.3 15.7C-.2 86.7-1 98 1 98.9c2.6 1.2 3.7.1 7.1-2.4 4.5-3.2 8.5-7.2 11.6-11.8 2.9-4 5.2-8.4 6.9-13 2.4 5.9 5.7 11.4 9.8 16.3 6.7 7.9 15.4 13.1 17.7 11 1.9-1.7 1.1-3.4.7-5.2a93.44 93.44 0 0 0-5.7-16.1c-2.2-4.8-5-9.3-8.2-13.5 7.1-3.5 13.2-8.8 17.6-15.4 2.8-4.1 5.1-8.7 6.7-13.5 1.9-5.7 1.9-7.5.5-8.5zm-42 39.9c-1 3.7-2.6 7.2-4.5 10.4-2.3 3.8-5.1 7.4-8.3 10.5-2.1 2.1-3.7 3.7-4.8 3-1-.6-.5-2.3.1-4.8a65.93 65.93 0 0 1 5-13c1.8-3.2 4-6.1 6.6-8.8 1.3-1.3 4.6-4.5 6-3.7 1.3.7.1 5.5-.1 6.4zm1.2-13.9c-3 1.1-9.3-8.2-13.4-18.5C9.4 28.5 8 22.4 7.6 16.2c-.3-4.1-.6-7.2 1-7.7 1.8-.6 3.2 2.3 5.8 5.7 3 4.1 5.6 8.5 7.6 13.2 5.3 14 4.6 24.8 2.9 25.4zm17 18.3c2.8 4.3 9.9 17.8 7.7 19.5-1.9 1.5-10.3-7.4-14.2-13.1-3.1-4.5-8.3-16.6-6.4-17.8 1.9-1.1 8.5 4.5 12.9 11.4zm18.3-35.2c-1.9 4.1-4.2 7.9-6.8 11.6-3.5 5.1-13.5 13-15.4 11.2-1.6-1.6 4.1-12.3 8.4-16.7 3-3 6.1-5.7 9.5-8.2 2.1-1.5 4.2-2.6 5-2.1s.2 2.1-.7 4.2zm16.2 54V35.6h6.9v26.9l25.9-26.9h9.3l-21.8 22 22.8 32.3h-9.1L91.8 62.4l-8.5 8.7v18.8h-6.9zm75.7-54.3h6.9V67c0 5.5-.6 9.8-1.8 13s-3.5 6-6.4 7.8c-3.1 2-7.1 3-12.2 3-4.9 0-8.9-.9-12-2.6-3-1.7-5.4-4.4-6.6-7.6-1.3-3.3-2-7.9-2-13.6V35.6h6.9v31.3c0 4.7.4 8.2 1.3 10.4.8 2.2 2.3 4 4.3 5.2 2.3 1.3 4.9 1.9 7.5 1.8 5.1 0 8.7-1.2 10.8-3.6 2.2-2.4 3.2-7 3.2-13.8l.1-31.3zm5.4 54.3l20-54.3h7.4l21.3 54.3h-7.8l-6.1-16.4h-21.8l-5.7 16.4h-7.3zm15-22.3h17.6l-5.4-15c-1.7-4.6-2.9-8.3-3.7-11.3-.7 3.5-1.6 7-2.8 10.4l-5.7 15.9zm31.9 22.3V35.6h7.1l27.3 42.6V35.6h6.6v54.3h-7.1L211 47.2v42.7h-6.6zm58.5 0V42h-17.2v-6.4H287V42h-17.2v47.9h-6.9zm20.5-26.4c0-9 2.3-16.1 7-21.2 4.6-5.1 10.6-7.6 18-7.6 4.6-.1 9.1 1.2 13 3.6s6.9 5.9 8.8 10c2.1 4.6 3.1 9.5 3 14.6.1 5.1-1 10.2-3.2 14.8-1.9 4.1-5.1 7.6-9.1 9.9-3.8 2.2-8.2 3.4-12.6 3.4-4.6.1-9.2-1.2-13.1-3.7-3.8-2.4-6.9-6-8.8-10.1-2-4.4-3-9.1-3-13.7zm7.1.1c0 6.5 1.7 11.7 5.1 15.5 6.4 7 17.2 7.6 24.2 1.2.4-.4.9-.8 1.3-1.3 3.3-3.8 5-9.2 5-16.2a28.76 28.76 0 0 0-2.1-11.6c-1.3-3.1-3.5-5.8-6.3-7.7-2.8-1.8-6-2.8-9.3-2.7-4.7-.1-9.3 1.8-12.6 5.2-3.5 3.6-5.3 9.4-5.3 17.6z"
		fill="#f80" />
	<g fill="currentColor">
		<path
			d="M344.7 35.5h16.5v20.6l17.3-20.6h22L381 56l20.4 34h-20.3l-11.3-22.4-8.5 9.1V90h-16.5l-.1-54.5zm90.6 0h16.5V68a28.01 28.01 0 0 1-1.5 9.1c-1 2.8-2.5 5.4-4.6 7.5-1.8 2-4.1 3.5-6.6 4.5-3.7 1.3-7.6 1.9-11.6 1.8-2.8 0-5.7-.2-8.5-.6-2.7-.3-5.3-1-7.7-2.2-2.2-1.2-4.1-2.8-5.7-4.7-1.6-1.8-2.8-4-3.5-6.3-.9-3-1.5-6.1-1.5-9.2V35.5h16.5v33.2c-.2 2.6.7 5.1 2.4 7 3.8 3.3 9.5 3.3 13.4 0 1.6-1.6 2.4-4 2.4-7V35.5zm18.2 36.4l15.7-1c.2 2.1.9 4.2 2.1 5.9 1.7 2.2 4.5 3.5 7.3 3.3 2 .1 3.9-.5 5.4-1.7 1.2-1 1.9-2.4 1.9-3.9s-.7-2.9-1.8-3.8c-1.2-1.1-4-2.2-8.5-3.2-7.2-1.7-12.4-3.9-15.5-6.6-3.1-2.6-4.8-6.5-4.7-10.5 0-2.8.8-5.6 2.4-7.9 1.8-2.6 4.3-4.7 7.2-5.9 3.2-1.4 7.6-2.1 13.1-2.1 6.8 0 12 1.3 15.6 3.9s5.7 6.7 6.4 12.4l-15.6.9c-.2-2-1.1-3.9-2.6-5.4-1.6-1.2-3.5-1.8-5.5-1.7-1.5-.1-3.1.3-4.3 1.2-.9.7-1.5 1.8-1.5 3 0 .9.5 1.8 1.2 2.3.8.7 2.6 1.4 5.5 2 7.2 1.6 12.4 3.2 15.5 4.8 2.8 1.3 5.2 3.4 6.8 6 1.4 2.4 2.2 5.2 2.1 8.1 0 3.4-1 6.8-2.8 9.7-1.9 3-4.7 5.3-7.9 6.7-4.1 1.7-8.5 2.4-12.9 2.3-9.1 0-15.4-1.8-18.9-5.4-3.4-3.4-5.5-8.3-5.7-13.4z" />
		<path
			d="M500.1 35.5h50.2V49h-16.8v41H517V49h-16.9V35.5zM579.3 81h-18.7l-2.6 9h-16.9l20-54.5h18L599.2 90h-17.3l-2.6-9zm-3.5-11.8l-5.9-19.6-5.8 19.6h11.7z" />
	</g>
</svg>